Coordinates
version=1
nRows=12
nColumns=33
inDegrees=yes

Units are S.I. units (second, meters, Newtons, ...)
Angles are in degrees.

endheader
time	ground_thorax_rot_x	ground_thorax_rot_y	ground_thorax_rot_z	ground_thorax_tx	ground_thorax_ty	ground_thorax_tz	clav_prot_r	clav_elev_r	scapula_abduction_r	scapula_elevation_r	scapula_upward_rot_r	scapula_winging_r	shoulder_elv_r	plane_of_elev_r	axial_rot_r	elbow_flexion_r	pro_sup_r	wrist_flex_r	wrist_dev_r	clav_prot_l	clav_elev_l	scapula_abduction_l	scapula_elevation_l	scapula_upward_rot_l	scapula_winging_l	shoulder_elv_l	plane_of_elev_l	axial_rot_l	elbow_flexion_l	pro_sup_l	wrist_flex_l	wrist_dev_l
      1.24000000	     -2.96174327	      3.57417049	     14.09326265	     -0.11782177	      1.02743187	      0.01082317	     13.58867093	    -13.90127492	     30.42020162	    -11.12485922	     12.88999414	     -7.08184678	     -6.56133132	    -60.42774751	    120.01763934	    -60.33383369	   -148.82525107	      6.28839567	      8.14880777	     14.93300479	     -6.20667964	    -21.00087057	    -14.49864177	    -32.80316182	      3.21165867	     64.65395341	    -17.31266754	      6.90130310	     58.04645101	     13.25053990	     24.87749635	     -8.78225274
      1.25000000	     -3.04205408	      3.76115706	     13.77147167	     -0.11737975	      1.02715487	      0.01052870	     13.52883247	    -13.68571765	     30.88027661	    -11.23049386	     13.78841481	     -7.34482729	     -5.09915098	    -59.53661389	    121.37398041	    -58.11939411	   -148.06206532	      5.51355929	      8.39043105	     15.57348532	     -6.24415005	    -22.05658495	    -14.17457560	    -32.26765419	      3.80735000	     63.94265829	    -15.84903095	      7.94542328	     56.26487493	     12.92791283	     25.80973048	     -8.31021434
      1.26000000	     -3.26112224	      3.94549686	     13.82278191	     -0.11729770	      1.02704903	      0.01025426	     13.80927956	    -13.88964616	     31.38337930	    -11.43320636	     13.88563988	     -7.44123266	     -3.79086060	    -58.61994158	    121.93033616	    -56.04790345	   -147.36034279	      5.01652304	      8.41823914	     16.21143020	     -6.39079408	    -23.12597936	    -13.84036044	    -31.92298553	      4.38942079	     63.61560227	    -14.79264618	      8.31043415	     54.52646458	     12.87211175	     26.50260678	     -7.89996029
      1.27000000	     -3.43702304	      4.14374037	     13.79043198	     -0.11679630	      1.02736090	      0.00993177	     14.04455558	    -14.33596033	     31.98319396	    -11.94456294	     14.27370688	     -7.40919808	     -3.07519500	    -58.22287122	    121.86495064	    -54.13187406	   -147.17848169	      4.59974116	      8.47694011	     16.50252600	     -6.75018710	    -23.58050615	    -13.27743485	    -31.46373491	      4.66163959	     63.72629165	    -14.00073779	      7.93032580	     52.79714000	     13.09271890	     26.61040765	     -7.58213461
      1.28000000	     -3.67280379	      4.24026718	     13.50533463	     -0.11616607	      1.02762674	      0.00961023	     14.21001791	    -14.66430590	     32.62550372	    -12.43046226	     14.90555474	     -7.43580584	     -2.29318623	    -57.64405009	    122.06936157	    -52.16709664	   -146.85095858	      4.23150626	      8.41793751	     16.84838168	     -6.90431027	    -24.12353510	    -12.82838569	    -30.85625702	      5.00747161	     63.62696486	    -12.98533059	      8.11875505	     50.88526356	     13.20587330	     26.76493050	     -7.26084919
      1.29000000	     -3.86528736	      4.34791468	     13.38490498	     -0.11560183	      1.02773774	      0.00921074	     14.41101058	    -14.91728809	     33.26583845	    -12.81378700	     15.43672338	     -7.51603779	     -1.56474212	    -57.17298245	    122.30307672	    -50.22541848	   -146.46320595	      3.91228716	      8.23224500	     17.22034590	     -7.01244720	    -24.72120221	    -12.43951526	    -30.28998764	      5.38155890	     63.37305061	    -11.97199649	      8.18549474	     48.92514895	     13.31534149	     26.93673296	     -6.97225458
      1.30000000	     -4.03165898	      4.41169050	     13.48993079	     -0.11516771	      1.02737362	      0.00870715	     14.61699194	    -14.90238192	     33.90313327	    -12.94587944	     15.93055282	     -7.76636921	     -0.90869538	    -56.67155037	    122.85058472	    -48.18976079	   -145.69555557	      3.79133710	      7.54921089	     17.78432270	     -6.83695096	    -25.66480640	    -12.30373898	    -29.74143346	      5.96108284	     62.53305930	    -10.77917277	      8.65414253	     46.83263033	     13.29573653	     27.17332219	     -6.81046175
      1.31000000	     -4.20181107	      4.56055978	     13.50001798	     -0.11458707	      1.02766654	      0.00834323	     14.88758600	    -15.25886252	     34.49327351	    -13.33801850	     16.21488824	     -7.77909466	     -0.36454509	    -56.40592568	    122.78455922	    -46.56780669	   -145.51064040	      3.47507655	      7.45669552	     18.09196469	     -7.20053266	    -26.15836439	    -11.74228280	    -29.28712273	      6.24499268	     62.57810193	    -10.10566292	      8.17903351	     44.95134834	     13.55504909	     27.21959537	     -6.50134630
      1.32000000	     -4.41351043	      4.60717607	     13.32585403	     -0.11401795	      1.02748505	      0.00786194	     15.08346969	    -15.30079046	     35.20579641	    -13.56227723	     16.85619076	     -8.00888664	      0.13300942	    -55.95320878	    123.14008226	    -44.76680427	   -144.76823023	      3.49787728	      6.45269807	     18.67209210	     -7.01541080	    -27.13235053	    -11.54231013	    -28.59244223	      6.87008638	     61.81299872	     -8.92574680	      8.75893290	     42.79179011	     13.58306615	     27.09531472	     -6.40979057
      1.33000000	     -4.57524846	      4.73888048	     13.29381792	     -0.11336618	      1.02779520	      0.00750570	     15.34722827	    -15.60319662	     35.76064790	    -13.89253015	     17.10134581	     -8.04015486	      0.57887421	    -55.72177086	    123.05717281	    -43.40994242	   -144.60200942	      3.25131167	      6.29342088	     18.97674389	     -7.38480100	    -27.62552178	    -10.96991932	    -28.12066706	      7.15150090	     61.84561629	     -8.28397575	      8.27878636	     40.85456503	     13.85360434	     27.07988826	     -6.09923611
      1.34000000	     -4.74826415	      4.81372091	     13.15043420	     -0.11260783	      1.02814037	      0.00707449	     15.56448461	    -15.86887220	     36.32998539	    -14.23249956	     17.48391093	     -8.08300043	      0.99810054	    -55.50670696	    123.09459556	    -42.10631947	   -144.36150449	      3.06043364	      5.98863385	     19.28258079	     -7.65463685	    -28.12624925	    -10.45156039	    -27.57271911	      7.45154452	     61.73229041	     -7.53590128	      8.10096579	     38.81643974	     14.07259284	     26.98157584	     -5.80583159
      1.35000000	     -4.94864329	      4.83242143	     13.01575650	     -0.11209331	      1.02757555	      0.00661499	     15.77090550	    -15.68254119	     37.09888322	    -14.25953994	     18.16535871	     -8.48355632	      1.11091531	    -55.15763115	    123.45826664	    -40.65268334	   -143.35001730	      3.41779423	      4.16801853	     19.98724832	     -7.22353673	    -29.34252612	    -10.42308350	    -26.80186610	      8.26392395	     60.60311149	     -6.28367402	      8.81522219	     36.53956667	     14.03172087	     26.17531007	     -5.94264531
